<svg xmlns="http://www.w3.org/2000/svg" viewBox="0 0 512 512" role="img" aria-labelledby="title desc">
  <title id="title">Logo de Grupo Independiente Liberal</title>
  <desc id="desc">Sello naranja de ladrillo, grua y poder municipal para GIL.</desc>
  <defs>
    <linearGradient id="gilBg" x1="74" y1="64" x2="432" y2="450" gradientUnits="userSpaceOnUse">
      <stop stop-color="#ffc15c"/>
      <stop offset="0.48" stop-color="#e25b27"/>
      <stop offset="1" stop-color="#872011"/>
    </linearGradient>
    <linearGradient id="gilGold" x1="132" y1="86" x2="376" y2="430" gradientUnits="userSpaceOnUse">
      <stop stop-color="#fff1ad"/>
      <stop offset="1" stop-color="#d9901d"/>
    </linearGradient>
  </defs>
  <rect width="512" height="512" rx="86" fill="#1b0d05"/>
  <circle cx="256" cy="256" r="183" fill="url(#gilBg)"/>
  <circle cx="256" cy="256" r="164" fill="none" stroke="url(#gilGold)" stroke-width="13"/>
  <path d="M134 342h244v42H134z" fill="#fff1c0"/>
  <path d="M158 302h64v40h-64zm72 0h64v40h-64zm72 0h64v40h-64zM190 262h64v40h-64zm72 0h64v40h-64z" fill="#fff1c0" opacity="0.92"/>
  <path d="M168 158h206l-96-53v191" fill="none" stroke="#fff4cf" stroke-width="18" stroke-linecap="round" stroke-linejoin="round"/>
  <path d="M278 105h98v54M376 159c0 27-34 27-34 0" fill="none" stroke="#fff4cf" stroke-width="15" stroke-linecap="round"/>
  <text x="256" y="252" text-anchor="middle" fill="#fff7df" font-family="Arial Black, Arial, sans-serif" font-size="112" font-weight="900" letter-spacing="-6">GIL</text>
</svg>
