<svg xmlns="http://www.w3.org/2000/svg" viewBox="0 0 512 512" role="img" aria-labelledby="title desc">
  <title id="title">Logo de Junts Units Nacionalment per la Terra Sobirana</title>
  <desc id="desc">Marca turquesa territorial con franjas regionalistas y siglas JUNTS.</desc>
  <defs>
    <linearGradient id="juntsBg" x1="74" y1="62" x2="432" y2="450" gradientUnits="userSpaceOnUse">
      <stop stop-color="#ffd95b"/>
      <stop offset="0.5" stop-color="#f0b92b"/>
      <stop offset="1" stop-color="#b86912"/>
    </linearGradient>
    <linearGradient id="teal" x1="142" y1="118" x2="370" y2="390" gradientUnits="userSpaceOnUse">
      <stop stop-color="#44d8df"/>
      <stop offset="1" stop-color="#008d98"/>
    </linearGradient>
    <filter id="drop" x="-20%" y="-20%" width="140%" height="140%">
      <feDropShadow dx="0" dy="18" stdDeviation="18" flood-color="#251900" flood-opacity="0.42"/>
    </filter>
  </defs>
  <rect width="512" height="512" rx="86" fill="#150f06"/>
  <rect x="76" y="86" width="360" height="340" rx="68" fill="url(#juntsBg)" filter="url(#drop)"/>
  <path d="M104 155h304M104 224h304M104 293h304M104 362h304" stroke="#c51d31" stroke-width="21" opacity="0.9"/>
  <path d="M276 116c62 0 108 42 108 98 0 76-76 117-128 153-52-36-128-77-128-153 0-56 46-98 108-98h40Z" fill="url(#teal)"/>
  <path d="M202 185h108M202 235h108M202 285h108" stroke="#fff4c5" stroke-width="18" stroke-linecap="round"/>
  <path d="M345 173c22 25 22 61 0 86" fill="none" stroke="#fff4c5" stroke-width="15" stroke-linecap="round"/>
  <rect x="111" y="356" width="290" height="58" rx="18" fill="#101916" opacity="0.9"/>
  <text x="256" y="401" text-anchor="middle" fill="#44d8df" font-family="Arial Black, Arial, sans-serif" font-size="51" font-weight="900" letter-spacing="-3">JUNTS</text>
</svg>
