<svg xmlns="http://www.w3.org/2000/svg" viewBox="0 0 512 512" role="img" aria-labelledby="juntsTitle juntsDesc">
  <title id="juntsTitle">Logo de Junts Usuaris de Noves Tarifes Sobiranes</title>
  <desc id="juntsDesc">Marca territorial dorada con llave de provincia, franjas y siglas JUNTS.</desc>
  <defs>
    <linearGradient id="juntsBg" x1="74" y1="56" x2="430" y2="454" gradientUnits="userSpaceOnUse">
      <stop stop-color="#ffe274"/>
      <stop offset="0.48" stop-color="#e5ae27"/>
      <stop offset="1" stop-color="#9b5d12"/>
    </linearGradient>
    <linearGradient id="juntsTeal" x1="154" y1="118" x2="374" y2="386" gradientUnits="userSpaceOnUse">
      <stop stop-color="#5df0f1"/>
      <stop offset="1" stop-color="#008b97"/>
    </linearGradient>
    <filter id="juntsShadow" x="-20%" y="-20%" width="140%" height="140%">
      <feDropShadow dx="0" dy="18" stdDeviation="18" flood-color="#221300" flood-opacity="0.42"/>
    </filter>
  </defs>
  <rect width="512" height="512" rx="78" fill="#130e05"/>
  <rect x="74" y="76" width="364" height="356" rx="58" fill="url(#juntsBg)" filter="url(#juntsShadow)"/>
  <path d="M104 142h304M104 206h304M104 270h304M104 334h304" stroke="#b71c2b" stroke-width="20" opacity="0.86"/>
  <path d="M146 105h220c24 0 43 19 43 43v220c0 24-19 43-43 43H146c-24 0-43-19-43-43V148c0-24 19-43 43-43Z" fill="none" stroke="#fff2b7" stroke-width="10" opacity="0.72"/>
  <g transform="translate(256 232)">
    <path d="M0-100c60 0 109 42 109 94 0 67-66 103-109 150C-43 97-109 61-109-6c0-52 49-94 109-94Z" fill="url(#juntsTeal)"/>
    <path d="M-50-4h114c24 0 43 20 43 44v14H-93V40c0-24 19-44 43-44Z" fill="#fff4c9"/>
    <circle cx="-38" cy="-18" r="24" fill="#fff4c9"/>
    <path d="M-14-18h100M65-18v32M88-18v22" stroke="#007d88" stroke-width="15" stroke-linecap="round"/>
    <path d="M-56 69h112" stroke="#007d88" stroke-width="12" stroke-linecap="round"/>
  </g>
  <rect x="104" y="374" width="304" height="58" rx="15" fill="#111917" opacity="0.94"/>
  <text x="256" y="415" text-anchor="middle" fill="#65eef0" font-family="Arial Black, Arial, sans-serif" font-size="44" font-weight="900">JUNTS</text>
</svg>
