<svg xmlns="http://www.w3.org/2000/svg" viewBox="0 0 512 512" role="img" aria-labelledby="title desc">
  <title id="title">Logo de Union Progresista Nacional</title>
  <desc id="desc">Marca roja con punio y rosa sobre baldosas, para PISOE.</desc>
  <defs>
    <linearGradient id="pisoeBg" x1="72" y1="66" x2="432" y2="448" gradientUnits="userSpaceOnUse">
      <stop stop-color="#ff6860"/>
      <stop offset="0.48" stop-color="#dc1d24"/>
      <stop offset="1" stop-color="#8f0f17"/>
    </linearGradient>
    <filter id="drop" x="-20%" y="-20%" width="140%" height="140%">
      <feDropShadow dx="0" dy="18" stdDeviation="18" flood-color="#320006" flood-opacity="0.42"/>
    </filter>
  </defs>
  <rect width="512" height="512" rx="86" fill="#170809"/>
  <rect x="74" y="74" width="364" height="364" rx="52" fill="url(#pisoeBg)" filter="url(#drop)"/>
  <path d="M110 144h292M110 214h292M110 284h292M182 112v210M258 112v210M334 112v210" stroke="#fff0d4" stroke-width="8" opacity="0.3"/>
  <path d="M111 111h290v214H111z" fill="none" stroke="#fff0d4" stroke-width="12"/>
  <g transform="translate(256 201)">
    <path d="M-86 30c-9-35 5-66 36-76 24-8 44 3 61 26 18-24 39-35 64-26 31 12 45 44 36 79-38-5-68 6-98 36-31-31-63-42-99-39Z" fill="#fff4dc"/>
    <path d="M-62 59h124c24 0 44 20 44 44v10H-106v-10c0-24 20-44 44-44Z" fill="#fff4dc"/>
    <path d="M-86 106H86" stroke="#dc1d24" stroke-width="9" stroke-linecap="round" opacity="0.58"/>
    <path d="M45-3c31 19 49 46 57 82" fill="none" stroke="#fff4dc" stroke-width="13" stroke-linecap="round"/>
  </g>
  <rect x="104" y="346" width="304" height="62" rx="18" fill="#fff4dc"/>
  <text x="256" y="395" text-anchor="middle" fill="#d71920" font-family="Arial Black, Arial, sans-serif" font-size="58" font-weight="900" letter-spacing="-4">PISOE</text>
</svg>
