<svg xmlns="http://www.w3.org/2000/svg" viewBox="0 0 512 512" role="img" aria-labelledby="title desc">
  <title id="title">Logo de Pantomima Popular</title>
  <desc id="desc">Marca azul institucional con siglas PP y un palco dorado satirico.</desc>
  <defs>
    <linearGradient id="ppBg" x1="76" y1="54" x2="424" y2="456" gradientUnits="userSpaceOnUse">
      <stop stop-color="#27a8ff"/>
      <stop offset="0.5" stop-color="#076bd2"/>
      <stop offset="1" stop-color="#032d8d"/>
    </linearGradient>
    <linearGradient id="ppGold" x1="144" y1="116" x2="360" y2="404" gradientUnits="userSpaceOnUse">
      <stop stop-color="#ffeaa1"/>
      <stop offset="1" stop-color="#d59a22"/>
    </linearGradient>
    <filter id="drop" x="-20%" y="-20%" width="140%" height="140%">
      <feDropShadow dx="0" dy="18" stdDeviation="18" flood-color="#001327" flood-opacity="0.45"/>
    </filter>
  </defs>
  <rect width="512" height="512" rx="86" fill="#06111f"/>
  <rect x="74" y="74" width="364" height="364" rx="86" fill="url(#ppBg)" filter="url(#drop)"/>
  <rect x="95" y="95" width="322" height="322" rx="68" fill="none" stroke="url(#ppGold)" stroke-width="12"/>
  <path d="M142 168c55-43 128-56 219-38-48 13-88 40-119 80 48-25 98-31 150-17-63 22-111 57-145 106-28-53-63-95-105-131Z" fill="#f8fbff"/>
  <text x="256" y="314" text-anchor="middle" fill="#ffffff" font-family="Arial Black, Arial, sans-serif" font-size="118" font-weight="900" letter-spacing="-11">PP</text>
  <path d="M149 348h214" stroke="url(#ppGold)" stroke-width="18" stroke-linecap="round"/>
  <path d="M174 348v39M256 348v39M338 348v39" stroke="#f8d56f" stroke-width="12" stroke-linecap="round"/>
  <path d="M166 394h180" stroke="#fff0b2" stroke-width="10" stroke-linecap="round"/>
</svg>
