<svg xmlns="http://www.w3.org/2000/svg" viewBox="0 0 512 512" role="img" aria-labelledby="title desc">
  <title id="title">Logo de Partido Unido Feminista Federal</title>
  <desc id="desc">Marca morada de circulos asamblearios con punio y siglas PUFF.</desc>
  <defs>
    <linearGradient id="puffBg" x1="90" y1="62" x2="424" y2="452" gradientUnits="userSpaceOnUse">
      <stop stop-color="#c58cff"/>
      <stop offset="0.5" stop-color="#7b40c9"/>
      <stop offset="1" stop-color="#40166f"/>
    </linearGradient>
    <filter id="drop" x="-20%" y="-20%" width="140%" height="140%">
      <feDropShadow dx="0" dy="18" stdDeviation="18" flood-color="#150026" flood-opacity="0.45"/>
    </filter>
  </defs>
  <rect width="512" height="512" rx="86" fill="#13091d"/>
  <g filter="url(#drop)">
    <circle cx="181" cy="216" r="92" fill="url(#puffBg)"/>
    <circle cx="267" cy="165" r="103" fill="url(#puffBg)"/>
    <circle cx="333" cy="251" r="107" fill="url(#puffBg)"/>
    <circle cx="217" cy="303" r="92" fill="url(#puffBg)"/>
  </g>
  <path d="M181 216a92 92 0 0 1 86-51 103 103 0 0 1 66 86 107 107 0 0 1-116 52 92 92 0 0 1-36-87Z" fill="none" stroke="#ffe28a" stroke-width="13" opacity="0.95"/>
  <g transform="translate(260 217)">
    <rect x="-58" y="-40" width="39" height="91" rx="18" fill="#fff3d5"/>
    <rect x="-25" y="-66" width="39" height="117" rx="18" fill="#fff3d5"/>
    <rect x="8" y="-56" width="39" height="107" rx="18" fill="#fff3d5"/>
    <rect x="41" y="-32" width="37" height="83" rx="18" fill="#fff3d5"/>
    <path d="M-66 1h136c-3 66-38 102-83 102-35 0-53-34-53-102Z" fill="#fff3d5"/>
  </g>
  <text x="256" y="396" text-anchor="middle" fill="#fff7df" font-family="Arial Black, Arial, sans-serif" font-size="65" font-weight="900" letter-spacing="-3">PUFF...</text>
</svg>
