<svg xmlns="http://www.w3.org/2000/svg" viewBox="0 0 512 512" role="img" aria-labelledby="voxTitle voxDesc">
  <title id="voxTitle">Logo de Votantes obreros con Xilófono</title>
  <desc id="voxDesc">Escudo verde con xilófono, baquetas cruzadas, bombo y siglas VOX.</desc>
  <defs>
    <linearGradient id="voxBg" x1="80" y1="56" x2="430" y2="454" gradientUnits="userSpaceOnUse">
      <stop stop-color="#9af05d"/>
      <stop offset="0.48" stop-color="#3fa62c"/>
      <stop offset="1" stop-color="#0f5b28"/>
    </linearGradient>
    <linearGradient id="voxGold" x1="144" y1="122" x2="372" y2="386" gradientUnits="userSpaceOnUse">
      <stop stop-color="#fff4aa"/>
      <stop offset="1" stop-color="#d4a230"/>
    </linearGradient>
    <filter id="voxShadow" x="-20%" y="-20%" width="140%" height="140%">
      <feDropShadow dx="0" dy="18" stdDeviation="18" flood-color="#001908" flood-opacity="0.44"/>
    </filter>
  </defs>
  <rect width="512" height="512" rx="78" fill="#061408"/>
  <path d="M256 58 407 150 374 398H138l-33-248L256 58Z" fill="url(#voxBg)" filter="url(#voxShadow)"/>
  <path d="M256 88 377 162 350 369H162l-27-207 121-74Z" fill="none" stroke="#dcffb0" stroke-width="12"/>
  <circle cx="256" cy="196" r="64" fill="#0c391d" opacity="0.88"/>
  <circle cx="256" cy="196" r="43" fill="none" stroke="url(#voxGold)" stroke-width="14"/>
  <path d="M165 284h182" stroke="#f8ffe7" stroke-width="12" stroke-linecap="round"/>
  <g transform="translate(256 291) rotate(-5)">
    <rect x="-116" y="-34" width="48" height="46" rx="10" fill="#fff2a4"/>
    <rect x="-56" y="-44" width="48" height="56" rx="10" fill="#e7d566"/>
    <rect x="4" y="-52" width="48" height="64" rx="10" fill="#ffb84f"/>
    <rect x="64" y="-62" width="48" height="74" rx="10" fill="#d66d32"/>
    <path d="M-128 22H128" stroke="#fff5ce" stroke-width="10" stroke-linecap="round"/>
  </g>
  <path d="M174 145 338 345M338 145 174 345" stroke="#fff5ce" stroke-width="12" stroke-linecap="round" opacity="0.48"/>
  <rect x="128" y="380" width="256" height="60" rx="15" fill="#082114" opacity="0.94"/>
  <text x="256" y="425" text-anchor="middle" fill="#fff7d4" font-family="Arial Black, Arial, sans-serif" font-size="50" font-weight="900">VOX</text>
</svg>
