<svg xmlns="http://www.w3.org/2000/svg" viewBox="0 0 96 96" role="img" aria-label="Favores">
  <defs>
    <linearGradient id="hand" x1="16" y1="26" x2="84" y2="76" gradientUnits="userSpaceOnUse">
      <stop stop-color="#f4c39b"/>
      <stop offset=".62" stop-color="#e18c62"/>
      <stop offset="1" stop-color="#a84b3d"/>
    </linearGradient>
    <linearGradient id="paper" x1="38" y1="14" x2="74" y2="58" gradientUnits="userSpaceOnUse">
      <stop stop-color="#fff7d7"/>
      <stop offset="1" stop-color="#f0cf78"/>
    </linearGradient>
  </defs>
  <path fill="url(#paper)" d="M38 10h36a5 5 0 0 1 5 5v40a5 5 0 0 1-5 5H38a5 5 0 0 1-5-5V15a5 5 0 0 1 5-5Z"/>
  <path fill="#17201e" d="M43 22h26v5H43zm0 12h22v5H43zm0 12h16v5H43z" opacity=".55"/>
  <path fill="url(#hand)" d="M8 61c10-5 18-4 27 0l10 5h17c4 0 7 3 7 7 0 1-.2 2-.5 3H78c6 0 10 6 7 11H37c-7 0-14-3-20-8L8 73V61Z"/>
  <path fill="#ffd2ae" d="M11 63c8-3 15-3 23 1l10 5h16c3 0 5 2 5 4H45c-11 0-20-9-34-3v-7Z" opacity=".5"/>
</svg>
